<svg version="1.2" xmlns="http://www.w3.org/2000/svg" viewBox="0 0 24 24" width="24" height="24"><style></style><path fill-rule="evenodd" d="m22.9 17.4c1.5 1.5 1.5 4 0 5.5-1.5 1.5-4 1.5-5.5 0l-5.4-5.5-5.5 5.5c-1.5 1.5-3.9 1.5-5.4 0-1.5-1.5-1.5-4 0-5.5l5.4-5.4-5.4-5.5c-1.5-1.5-1.5-3.9 0-5.4 1.5-1.5 3.9-1.5 5.4 0l5.5 5.4 5.4-5.4c1.5-1.5 4-1.5 5.5 0 1.5 1.5 1.5 3.9 0 5.4l-5.5 5.5zm-1.3 1.3l-6.8-6.8 6.8-6.8c0.7-0.7 0.7-1.9 0-2.7-0.8-0.7-2-0.7-2.8 0l-6.8 6.8-6.8-6.8c-0.7-0.7-1.9-0.7-2.7 0-0.7 0.8-0.7 2 0 2.7l6.8 6.8-6.8 6.8c-0.7 0.8-0.7 2 0 2.8 0.8 0.7 2 0.7 2.7 0l6.8-6.8 6.8 6.8c0.8 0.7 2 0.7 2.8 0 0.7-0.8 0.7-2 0-2.8z"/></svg>