<svg version="1.2" xmlns="http://www.w3.org/2000/svg" viewBox="0 0 16 16" width="16" height="16"><style>.a{fill:#ed5564}.b{fill:#e6e9ed}.c{fill:#434a54}.d{opacity:.2;fill:#fff}.e{opacity:.1}</style><path class="a" d="m15.4 4.9q-0.6-1.4-1.7-2.6-1.2-1.1-2.6-1.7-1.5-0.6-3.1-0.6-1.6 0-3.1 0.6-1.4 0.6-2.6 1.7-1.1 1.2-1.7 2.6-0.6 1.5-0.6 3.1 0 1.6 0.6 3.1 0.6 1.4 1.7 2.6 1.2 1.1 2.6 1.7 1.5 0.6 3.1 0.6 1.6 0 3.1-0.6 1.4-0.6 2.6-1.7 1.1-1.2 1.7-2.6 0.6-1.5 0.6-3.1 0-1.6-0.6-3.1z"/><path class="b" d="m0 8.2q0 1.5 0.6 2.9 0.6 1.4 1.7 2.6 1.2 1.1 2.6 1.7 1.5 0.6 3.1 0.6 1.6 0 3.1-0.6 1.4-0.6 2.6-1.7 1.1-1.2 1.7-2.6 0.6-1.4 0.6-2.9z"/><path class="c" d="m16 8.8q0-0.4 0-0.8 0-0.4 0-0.9-0.7 0.1-1.7 0.2c-1.4 0.2-3.6 0.4-6.3 0.4-2.7 0-4.9-0.2-6.3-0.4q-1-0.1-1.7-0.2 0 0.5 0 0.9 0 0.4 0 0.8c1.3 0.2 4.2 0.5 8 0.5 3.8 0 6.7-0.3 8-0.5z"/><path fill-rule="evenodd" class="b" d="m8 10c-0.9 0-1.7-0.7-1.7-1.7 0-0.9 0.8-1.6 1.7-1.6 0.9 0 1.7 0.7 1.7 1.6 0 1-0.8 1.7-1.7 1.7z"/><path class="c" d="m8 5.3c-1.7 0-3 1.4-3 3 0 1.7 1.3 3 3 3 1.7 0 3-1.3 3-3 0-1.6-1.3-3-3-3zm0 4.4c-0.7 0-1.3-0.6-1.3-1.4 0-0.7 0.6-1.3 1.3-1.3 0.7 0 1.3 0.6 1.3 1.3 0 0.8-0.6 1.4-1.3 1.4z"/><path class="d" d="m15.4 4.9q-0.6-1.4-1.7-2.6-1.2-1.1-2.6-1.7-1.5-0.6-3.1-0.6-0.2 0-0.3 0 1.4 0.1 2.7 0.6 1.5 0.6 2.6 1.7 1.1 1.2 1.7 2.6 0.6 1.5 0.6 3.1 0 1.6-0.6 3.1-0.6 1.4-1.7 2.6-1.1 1.1-2.6 1.7-1.3 0.5-2.7 0.6 0.1 0 0.3 0 1.6 0 3.1-0.6 1.4-0.6 2.6-1.7 1.1-1.2 1.7-2.6 0.6-1.5 0.6-3.1 0-1.6-0.6-3.1z"/><path class="e" d="m0.6 11.1q0.6 1.4 1.7 2.6 1.2 1.1 2.6 1.7 1.5 0.6 3.1 0.6 0.2 0 0.3 0-1.4-0.1-2.7-0.6-1.5-0.6-2.6-1.7-1.1-1.2-1.7-2.6-0.6-1.5-0.6-3.1 0-1.6 0.6-3.1 0.6-1.4 1.7-2.6 1.1-1.1 2.6-1.7 1.3-0.5 2.7-0.6-0.1 0-0.3 0-1.6 0-3.1 0.6-1.4 0.6-2.6 1.7-1.1 1.2-1.7 2.6-0.6 1.5-0.6 3.1 0 1.6 0.6 3.1z"/></svg>