<svg version="1.2" xmlns="http://www.w3.org/2000/svg" viewBox="0 0 100 92" width="100" height="92">
	<title>151</title>
	<style>
		.s0 { fill: #0d131a } 
		.s1 { fill: #fceded } 
		.s2 { fill: #f6c7ce } 
		.s3 { fill: #ffffff } 
		.s4 { fill: #00aeeb } 
	</style>
	<g>
		<path class="s0" d="m45.1 37.9l7.7-5.8v2.1q0.1 3.2 0.2 6 0.2 3.4 0.6 4.1l0.6 0.9 1 1.2q0.2 0.6 0.1 1.2-0.4 1.1-2 0.7v0.1l-0.4 1q-0.4 0.6-1 0.8-1 0.2-1.8-1.3h-0.1q-0.9 0.7-1.5 0.5-0.8-0.2-0.9-1 0-0.4 0.2-1.6l0.1-1.3q-0.2-2.2-0.7-3.3l-0.9-2.1-0.8-1.4z"/>
		<path class="s1" d="m51.2 39.2l0.7-0.1q0.2 4.6 0.8 5.7l0.9 1.3q0.8 0.9 0.7 1.1l-0.7 0.1-1-0.1q-0.1 0.1-0.4 1-0.2 0.9-0.5 0.9-0.3 0.1-0.7-0.7-0.5-0.8-0.7-0.8-0.3 0.1-0.9 0.5-0.5 0.4-0.7 0.3-0.1 0 0.1-1.3l0.2-1.7q-0.5-3.4-0.8-4.2l-0.3-0.7q2.2-1.2 3.3-1.3z"/>
		<path class="s2" d="m51.9 39.1l-0.7 0.1q-1.1 0.1-3.3 1.3l-1-2.7 4.9-3.6z"/>
		<path class="s0" d="m98.5 50q1.2 7.5-1.6 15-3 8.2-10.1 14.2-4.3 3.9-12.2 8.6-4.8 2.9-9.6 3.5-4.8 0.5-6-1.6-0.9-1.5 1.6-4.5 2.5-3.1 8-7.4l3.1-2.4q2.1-1.6 3.8-2.2 2.1-0.9 4-0.5 1 0.2 2.9 0.7l0.9 0.2h0.7q5.9-5.1 8.5-12.1 2.2-6 1.3-11.4-0.4-3.3-2.2-5.7-1.6-2.2-3.8-3.1-4.8-2-12 4.5-4.4 3.9-12.1 13.8l-1.1 1.5-2.3 3.3-1.7 2.4q-6.6 9.5-10.8 12.2-6.1 3.9-15.8 1.4-10.7-2.8-13.2-17.4-0.8-4.5-0.7-9.7l0.4-4.4 0.6-1 5.7 0.6-0.1 1.1q-0.3 1.7-0.5 4-0.3 4.5 0.2 8.3 1.3 11.9 9.1 13.8l7.7 0.2q4.3-0.9 7.2-4 3.1-3.3 5.4-6.2 2.2-2.9 5.7-7.9 8.3-12.2 16-17.5 7.9-5.4 13.8-2.8 3.6 1.6 5.8 4.2 2.6 3.3 3.4 8.3z"/>
		<path class="s2" d="m23.4 49.4l-0.3 1.9q-0.2 2.3-0.2 4.6l-1.2-0.1q-0.5 0.1-2.1 1.4-0.2-4.6 0.3-8.2z"/>
		<path class="s1" d="m95.1 50.2q-0.6-3.6-2.5-6.5-2-2.9-4.5-3.6-5.4-1.7-12.4 4.3-4.9 4.2-14 15.8l-2 2.9-2 2.8-5 6.6q-2.6 3.3-5.1 4.9-5.8 4-14.9 1.7-6.9-1.8-10.3-9-2.4-5.3-2.8-12.9 1.6-1.3 2.1-1.4l1.2 0.1q-0.1 7.5 1.6 12.4 2.4 7.1 8.4 8.6 7.9 2.1 13.6-1.7 3.7-2.5 9.4-10.4 2.3-3.3 3.9-5.3 7.2-9.8 12.5-14.6 9.6-8.8 16.6-6.3 3.1 1.2 5.2 4.2 2.1 3.1 2.8 7.5 1 6.5-1.2 13.2-2.6 8-9.3 13.8l-1.2 1q-3.3 2.7-10.9 7.2-6.3 3.8-9.9 4.2-2.7 0.4-3.5-1.1-0.4-0.8 5.4-6.1 5.4-4.9 8-6.7 2.2-1.5 5.1-1.3l3.6 0.7h0.9l0.4-0.1q6.3-5.3 9.2-12.8 2.5-6.5 1.6-12.1z"/>
		<path class="s1" d="m33.7 56.3q0.1 2.6 0.3 2.9 0.8 2.1 7.8 8.1l9 7.9q2.1 2.2 2.6 3.8 0.2 1.1-0.4 2.3 0 0.7-0.5 1.3-0.4 0.6-1.2 0.7-1.2 2.3-4.6-0.6-2.1-1.8-4.8-5.7-0.9-1.1-5.8-4.6l-7.4-5.3q-2.3-1.7-2.1-3.8 0.1-2.1 2.5-4.8l-0.4-5q1.5-0.2 5-1.7z"/>
		<path class="s2" d="m62.1 86.7q1.7-1.8 4.4-3.6 1.6-1.1 4.4-2.6 1.8-1.1 3.4-1.7 2.1-0.8 3.3-0.8 2.4 0.1 3.6 0.6 0.9 0.4 0.8 1.3-0.1 0.8-1.3 1.6l-6.4 4q-6.3 3.8-9.9 4.2-2.7 0.4-3.5-1.1-0.1-0.1 0.3-0.7 0.3-0.6 0.9-1.2z"/>
		<path class="s2" d="m28.6 53.7q3.3-1 5.1-1.9v4.6q-0.9-0.4-2.5-0.2-1.4 0.2-2.1 0.6z"/>
		<path class="s2" d="m38.2 73.7q4.2 1.8 9.1 6.1 1.4 1.3 3.3 0.7 2-0.7 1.9-3.2 0.7 0.9 0.9 2.1 0.1 1.1-0.3 1.7-0.4 1.9-1.5 2.2-1.7 1.9-4.8-0.6-2.2-1.8-4.9-5.7l-1.6-1.6z"/>
		<path class="s0" d="m34.2 49.6v1.4 3.3q0.1 3.4 0.3 4.6 0.1 0.8 3 3.8 3.3 3.3 8.9 8l0.6 0.5q4 3.3 5.6 5.5 2.2 3 0.9 5v0.5q-0.2 0.7-0.7 1.2-0.3 0.3-1 0.4-0.2 0.6-0.9 1-0.6 0.3-1.2 0.3-1.9-0.1-4.1-2.4-1.3-1.3-3.1-3.9l-0.3-0.4q-0.7-1.1-1.9-2.1l-2.5-1.9-2.9-2q-1.4-1-3.2-2.2-2-1.4-2.8-2-1.4-1.1-2.3-2.2-1.3-1.8-0.4-4.1 0.5-1.3 1.9-3l0.3-0.3q0.1-1-0.8-6.1l-0.1-0.8zm-4.9 2.6l0.6 6.6-1.9 2.4q-1.4 2.3-0.2 3.8 1.2 1.5 3.1 2.9l4.3 3 3.4 2.6 2.7 2.3q1 0.9 1.8 1.9 1.6 2.4 3.5 4 2.7 2.2 4.3 1.4l-0.1-0.5q-0.4-1.3-2.2-3.6l-1.8-2 2.2 1.9q2.2 2 2.6 3.5 0 0.2 0.5-0.2 0.4-0.5 0.2-1.3-0.3-0.8-1.6-2.6l-1.3-1.6q0.5 0.2 1.3 0.9 1.4 1.1 2 2.4 0.2-1.9-1.9-4.1l-5.1-4.5-2.1-1.7-6.9-6.1q-3.4-3.2-3.5-4.4v-1.7-2.1-4.4z"/>
		<path class="s1" d="m48.2 15.5q-0.5 2.7-0.2 4.8 0.4 2.4 1.6 4.6 1.1 2.1 4.8 3.8 3 1.4 5.1 1.6l0.4 0.7q-4 2.1-11.5 7.2-6.7 4.6-10.1 9.8-2.5 3.8-8.5 5.3-6.4 1.7-10.7-1.5-1.2 0.6-1.8 1.3-0.3 0.3-1.1 2.5l-1.3 4q-1.4 5.2-1.2 9.6 0.4 6.4-0.5 11.6-1.1 6-3.4 6.2-0.5 1.1-1.8 1.3-1.4 0.2-2-0.8-2 0.5-3.2-2.3-1-2.2-0.9-4.8 0-2.5 2.1-7.9 1.8-4.9 3.4-7.8 0.6-1 1.7-4.5l1.9-5.9q0.8-2.4 0.8-4.9l-0.5-4.6q-0.5-3.9 0.3-7.3 0.9-3.4 3.3-6.8 2.1-3.1 8.1-5.2 4.3-1.4 10.2-2.3 3.8-0.5 8.6-3.2 2.7-1.7 6.4-4.5z"/>
		<path class="s2" d="m2.1 82.9q-0.5-4.5 1.6-9.4-0.3 4.2 0.9 6.5 1.1 2 3.1 2 1.9 0.1 3.6-1.5 1.8-1.6 2.3-4.2-0.1 3.7-0.9 6.5-1 3.5-2.9 4.2-0.8 1-1.8 1.2-1.1 0.2-1.9-0.6-3.5 0.2-4-4.7z"/>
		<path class="s0" d="m51.4 13.6l12.4 14.2 0.6 1.1-1 0.5-8.3 5.1q-8.7 5.5-11.6 8.2-2.3 2.1-3.9 4.7-1.2 1.8-2.6 3-2 1.7-5.1 2.8-4.2 1.5-8.1 1.1-3.5-0.4-4.8-1.8l-1.1 0.8q-0.6 0.5-1.9 4.2-1.1 3.5-1.5 5.6l-0.2 2v2.3 3.7q0.1 6-0.2 8.5-0.6 5.5-3.1 7.6-0.2 0.2-1 0.4-1.2 1.6-3.1 1.2-0.4-0.1-0.7-0.4l-0.3-0.3q-1.4 0.3-2.5-0.4-1.1-0.7-1.7-2.2-1.5-3.6 0.3-9.9 1.2-4.1 3.2-7.9 1.9-3.5 3.3-7.4l2-6.3q0.7-2.2 0.7-4 0.1-1.4-0.3-3.9-0.7-4.5-0.1-8.2 0.7-4 3.2-7.3 2.4-3.5 7.1-5.2 2.7-1.1 9-2.2l4.1-0.8q4.4-0.9 10.3-5 3-2 5.1-3.9l1-1.2zm-6.1 4.6q-6.1 4.3-10.9 5.3l-10.7 2.4q-5.6 1.7-8.3 5.5-2.8 4-3.5 8.3-0.4 2.9 0.1 6.2 0.4 2.6 0.4 4.1-0.1 1.9-0.8 4.3l-3 9.6-1.5 2.9q-1.1 2-1.7 3.6-2.2 6-2.5 10.2-0.4 5.3 2.7 6.4 0.3 0 0.5-0.2 1.1-1.6 1.1-3.5l-0.1-2.1-0.1-0.9 0.5 0.9q0.5 1.1 0.5 2.1 0 2.2-1.3 4l0.6 0.3q0.7 0.1 1.6-0.4l0.5-0.6 0.1-0.6q0.3-1.1 0.1-3.3l-0.2-2 0.4 0.6q0.3 0.7 0.5 1.5 0.3 1.6 0.1 3.2 1.7-2 2.4-6.5 0.4-2.9 0.4-7.4l-0.1-2.2v-4.3q0-1.2 0.3-2.7 0.3-2.2 1.5-5.8 1.4-4.1 2.2-4.8l1.7-1.4q2.1-1.7 3-2.9 2.4-2.8 3.8-6.9 1-2.9 1.3-4.8 0.2-1.5 0.1-2.7-0.2-1 0.3-1.1 0.4-0.1 0.6 0.9 0.2 1.3 0 2.8-0.2 2.2-1.2 5.2-1.8 6-6.8 10.3 2 1 4.5 1.3 3.6 0.3 7.5-1.2 3.5-1.4 5.8-4.3 4.1-5 5-5.8 3-2.7 11.8-8.3 4.4-2.8 8.3-5l-12.4-14.2q-2.1 1.9-5.1 4z"/>
		<path class="s1" d="m43.1 27.8l-0.8 4.2q-0.2 0.8-0.2 2.2 0 1.1 0.1 1.9 0 0.4 0.7 1.6 0.5 1 0.3 1.1l-0.9-0.2-1.2-0.1q-0.2 0.1-0.5 1.2-0.2 1.1-0.6 1.1-0.4 0-0.8-1l-0.7-1.2q-0.2-0.2-1.1 0.3-0.9 0.5-1 0.3-0.1-0.2 0.6-1.3l1-1.7q0.8-2.1 0.1-5.5l-0.9-2.9z"/>
		<path class="s0" d="m43.7 39.7l-0.8 0.1-0.8-0.2-0.4-0.1v0.3l-0.5 1.3q-0.4 0.7-1.2 0.7-0.7 0-1.2-0.6l-0.6-1.2-0.2-0.3-0.2 0.1q-1.6 1-2.3-0.1-0.3-0.5 0-1.2l0.8-1.4 1.1-1.5q0.2-0.9-0.1-3-0.2-2.1-0.6-3.2l-0.4-1.5q-0.1-0.5 0.3-0.5 0.5 0.1 0.8 1 0.6 1.7 0.9 3.4 0.3 2.7-0.3 4.4l-1 1.7q-0.7 1.1-0.6 1.3 0.1 0.2 1-0.3 0.9-0.5 1.1-0.3l0.7 1.2q0.4 1 0.8 1 0.4 0 0.6-1.1 0.3-1.1 0.5-1.2l1.2 0.1 0.9 0.2q0.2-0.1-0.3-1.1-0.7-1.2-0.7-1.6-0.1-0.8-0.1-1.9 0-1.4 0.2-2.2l0.7-4q0.4-0.4 0.7-0.4 0.5 0 0.6 0.5 0 0.3-0.4 1.3l-0.6 2.8q-0.3 1.3-0.1 3.8 0 0.3 0.5 1.2l0.5 1q0.2 0.4 0.1 0.8-0.2 0.5-0.6 0.7z"/>
		<path class="s0" d="m85.3 13.7q0.7 2.3 0.7 5 0 3.7-1.6 6.4-1.6 2.4-4.4 3.7-0.8 2.5-2.4 4.4-2.6 3.1-6.2 3.6-5.5 0.7-9.1-1.9-2.2-1.6-3.2-4-3.8-0.3-8.2-3.5-2.6-2-3.3-6.2-0.4-2.5-0.1-5-1.7-3.5-2-5.2-0.5-2.6-0.4-5.2 0-2.8 0.6-3.6 0.8-0.9 4.1-0.5 2.9 0.2 6.2 1.3 3.8-2.2 9.4-2.4 6.8-0.3 10.4 2.2 1.2-0.5 3.5-0.8 2.5-0.3 4.2-0.1 1.2 0.2 1.6 0.6 0.3 0.4 0.4 1.9 0.2 1.6-0.1 3.1-0.2 1.8-1.4 3.4 0.7 1.1 1.3 2.8z"/>
		<path class="s1" d="m84.5 4.7q0 1.1-0.2 2.7-0.3 1.6-1.1 2.6-0.6-1-1-0.8-0.2 0.1 0.1 0.7l0.4 0.8 1.1 2q1.1 2.5 1.1 6.1 0 2.6-1.4 5.2-1.5 2.7-3.4 3.4v-1.1q0-0.3-0.2-0.3-0.3 0-0.4 0.4l-0.4 1.4q-0.4 1.7-1.6 3.5-2.3 3.5-6.2 4.1-5 0.6-8.7-2.4-1.2-1-2.1-2.2l-0.6-1-0.6-0.9q-0.6-0.8-0.9-0.6l0.1 0.7 0.2 0.7q-3.4-0.9-6.7-3.2-2.7-1.7-3.3-5.9-0.3-2 0-4.5l0.2-1.8q0.1-1.1-0.3-1.2-0.2 0-0.4 0.8l-0.1 0.7q-1.2-2.3-1.5-3.8-0.3-1.8-0.4-4.3-0.1-3 0.4-3.7 0.6-0.9 5.2 0.2 2.3 0.5 4.4 1.3l2-1.2q2.9-1.2 7.2-1.4 5.2-0.2 8.1 0.9 0.8 0.3 2.2 1.3l1.3 1.1q0.8 0.7 1 0.5 0.2-0.3-1.3-1.8l2.7-0.5q4.3-0.7 4.9 0 0.2 0.3 0.2 1.5z"/>
		<path class="s2" d="m50.8 11q-0.4 0.6-1.1 0.6-0.9-0.1-1.4-1.5-0.4-1.2-0.4-3.2v-1.8l1.3 1.3q1.5 1.4 1.7 2.1 0.6 1.3-0.1 2.5z"/>
		<path class="s3" d="m59.4 15q0.5-0.1 1.5 0.9 1.1 1 2.1 2.6 1 1.5 1.1 3.6 0.1 1.9-0.3 2.4-0.4 0.3-1.5 0.3l-2.6-0.2q-2-0.3-3.3-0.8-1.8-0.7-2.1-1.8 0.6-3.4 2.2-5.3 1.4-1.7 2.9-1.7z"/>
		<path class="s4" d="m59.9 15q1.2 0.6 1.9 1.9 0.7 1.3 0.7 3 0 1.5-0.6 2.8-0.5 1.2-1.5 2l-3.2-0.5q-2.3-0.6-2.8-1.7-0.4-1.1 0.9-4 0.9-2 2.3-3 1.3-1 2.3-0.5z"/>
		<path class="s3" d="m56.7 22.3q-0.6 0-1-0.6-0.4-0.7-0.4-1.6 0-1 0.4-1.6 0.4-0.7 1-0.7 0.6 0 1 0.7 0.4 0.6 0.4 1.6 0 0.9-0.4 1.6-0.4 0.6-1 0.6z"/>
		<path class="s0" d="m63.8 16.7q-0.3-0.7-0.8-1.3-0.6-0.8-1.2-1.1l-0.3-0.1-0.1-0.2 0.2-0.1 0.5 0.1q0.8 0.4 1.4 1.3 0.5 0.7 0.7 1.3l0.1 0.5v0.3q-0.2 0-0.5-0.7z"/>
		<path class="s3" d="m76.1 24.8q-1.1-1.1 0.1-5 1.2-3.9 3.1-4.6 1.6-0.5 2 2 0.5 2.3-0.1 4-0.5 1.2-2.2 2.6-1.8 1.4-2.9 1z"/>
		<path class="s4" d="m77.1 17.3q0.6-1.1 1.1-1 1.1 0.4 1.6 1.8 0.6 1.5 0.2 3.3l-0.5 1.9q-0.3 0.6-1.6 1.1-1.2 0.5-1.7 0.3-0.6-0.2-0.7-1.5 0-1.2 0.5-3.1 0.4-1.6 1.1-2.8z"/>
		<path class="s3" d="m76.9 22.6q-0.5 0-0.8-0.6-0.4-0.6-0.4-1.4 0-0.9 0.4-1.4 0.3-0.6 0.8-0.6 0.5 0 0.9 0.6 0.3 0.6 0.3 1.4 0 0.8-0.3 1.4-0.4 0.6-0.9 0.6z"/>
		<path class="s0" d="m75.5 16.6q-0.2-0.1 0-0.7 0.2-0.6 0.6-1.2 0.3-0.4 0.8-0.7 0.6-0.3 0.6-0.1 0.1 0.2-0.1 0.3-0.6 0.3-1 0.9-0.5 0.9-0.6 1.3-0.1 0.3-0.3 0.2z"/>
		<path class="s0" d="m61.1 15.4q1.6 1.8 1.6 4.5 0 1.5-0.5 2.8-0.5 1.2-1.4 2.1l-0.9-0.2q1-0.7 1.6-1.9 0.6-1.3 0.6-2.8 0-1.6-0.9-3-0.8-1.3-2.1-1.9z"/>
		<path class="s0" d="m61.5 15.4q1.2 1.1 2 2.7 0.8 1.9 1 4 0.2 2-0.5 2.7-0.4 0.4-1.8 0.4l-2.9-0.2q-2.7-0.3-4.3-1.5-0.8-0.5-1-1.2-0.2-0.6 0.1-1.6 0.6-2.9 2.2-4.6 1.4-1.6 3-1.6 1-0.1 2.2 0.9zm1.3 3.2q-0.9-1.5-2-2.5-0.9-0.9-1.4-0.8-1.3 0.1-2.5 1.4-1.4 1.5-2 4.2-0.2 0.7-0.1 1.1 0.1 0.5 0.6 0.9 1.2 1 4.3 1.3l2.4 0.3q1 0 1.4-0.3 0.4-0.5 0.3-2.2-0.2-2-1-3.4z"/>
		<path class="s0" d="m81 15.3q0.9 0.9 0.9 3 0 1.7-0.5 3-0.3 0.9-1.1 1.9-0.9 0.9-2 1.4l-1.6 0.6q-0.8 0.1-1.2-0.6-0.7-1.2-0.1-3.7 0.5-2.1 1.2-3.6 1.1-2 2.3-2.4 1.3-0.4 2.1 0.4zm-1.8 0.4q-1.6 0.5-2.7 3.7-1 3.1-0.4 4.6 0.2 0.4 0.6 0.4 1 0 2.5-1.2 1.4-1.1 1.7-2.1 0.6-1.6 0.2-3.6-0.4-2.3-1.9-1.8z"/>
		<path class="s0" d="m78.3 15.8q1.2 0.5 1.8 2.3 0.6 1.8 0.1 4l-0.3 1.1-0.8 0.5 0.6-1.8q0.3-1.8-0.2-3.4-0.5-1.5-1.6-1.9l-0.4-0.1q0.2-0.5 0.6-0.7z"/>
	</g>
</svg>